HIERARCHY
ROOT Hips
{
 OFFSET 0.000000 0.000000 0.000000
 CHANNELS 6 Xposition Yposition Zposition Yrotation Xrotation Zrotation
 JOINT Chest
 {
  OFFSET 0.000000 9.303000 0.001900
  CHANNELS 3 Yrotation Xrotation Zrotation
  JOINT Chest2
  {
   OFFSET 0.000000 9.301100 -0.003900
   CHANNELS 3 Yrotation Xrotation Zrotation
   JOINT Chest3
   {
    OFFSET 0.000000 9.262800 0.000000
    CHANNELS 3 Yrotation Xrotation Zrotation
    JOINT Chest4
    {
     OFFSET 0.000000 9.253300 0.000000
     CHANNELS 3 Yrotation Xrotation Zrotation
     JOINT Neck
     {
      OFFSET 0.000000 14.010300 0.000000
      CHANNELS 3 Yrotation Xrotation Zrotation
      JOINT Head
      {
       OFFSET 0.000000 8.657600 -0.008300
       CHANNELS 3 Yrotation Xrotation Zrotation
       End Site
       {
        OFFSET 0.000000 16.540200 -0.004400
       }
      }
     }
     JOINT RightCollar
     {
      OFFSET -2.834100 9.267700 0.000000
      CHANNELS 3 Yrotation Xrotation Zrotation
      JOINT RightShoulder
      {
       OFFSET -13.135200 0.000000 0.000000
       CHANNELS 3 Yrotation Xrotation Zrotation
       JOINT RightElbow
       {
        OFFSET 0.000000 -28.893500 0.000000
        CHANNELS 3 Yrotation Xrotation Zrotation
        JOINT RightWrist
        {
         OFFSET 0.000000 -23.344000 0.000000
         CHANNELS 3 Yrotation Xrotation Zrotation
         End Site
         {
          OFFSET 0.000000 -17.223000 0.000000
         }
        }
       }
      }
     }
     JOINT LeftCollar
     {
      OFFSET 2.834100 9.267700 0.000000
      CHANNELS 3 Yrotation Xrotation Zrotation
      JOINT LeftShoulder
      {
       OFFSET 13.135200 0.000000 0.000000
       CHANNELS 3 Yrotation Xrotation Zrotation
       JOINT LeftElbow
       {
        OFFSET 0.000000 -28.893500 0.000000
        CHANNELS 3 Yrotation Xrotation Zrotation
        JOINT LeftWrist
        {
         OFFSET 0.000000 -23.344000 0.000000
         CHANNELS 3 Yrotation Xrotation Zrotation
         End Site
         {
          OFFSET 0.000000 -17.223000 0.000000
         }
        }
       }
      }
     }
    }
   }
  }
 }
 JOINT RightHip
 {
  OFFSET -7.547200 -0.009500 -0.001000
  CHANNELS 3 Yrotation Xrotation Zrotation
  JOINT RightKnee
  {
   OFFSET 0.000000 -39.762800 0.000900
   CHANNELS 3 Yrotation Xrotation Zrotation
   JOINT RightAnkle
   {
    OFFSET 0.000000 -38.588200 0.001600
    CHANNELS 3 Yrotation Xrotation Zrotation
    JOINT RightToe
    {
     OFFSET 0.000000 -4.693300 10.419700
     CHANNELS 3 Yrotation Xrotation Zrotation
     End Site
     {
      OFFSET 0.000000 -1.379900 5.669300
     }
    }
   }
  }
 }
 JOINT LeftHip
 {
  OFFSET 7.547200 -0.009500 -0.001000
  CHANNELS 3 Yrotation Xrotation Zrotation
  JOINT LeftKnee
  {
   OFFSET 0.000000 -39.762800 0.000900
   CHANNELS 3 Yrotation Xrotation Zrotation
   JOINT LeftAnkle
   {
    OFFSET 0.000000 -38.588200 0.001600
    CHANNELS 3 Yrotation Xrotation Zrotation
    JOINT LeftToe
    {
     OFFSET 0.000000 -4.693300 10.419700
     CHANNELS 3 Yrotation Xrotation Zrotation
     End Site
     {
      OFFSET 0.000000 -1.379900 5.669300
     }
    }
   }
  }
 }
}
MOTION
Frames: 12
Frame Time: 0.008333
0.000000 82.880600 0.000000 0.000000 -5.767877 0.000000 0.000000 11.653817 0.000000 0.000000 -5.885947 0.000000 0.000000 -0.000000 0.000000 0.000000 -0.000000 0.000000 0.000000 12.528835 0.000000 0.000000 0.711642 0.000000 0.000000 -0.000000 0.000000 0.000000 0.000000 -90.000000 0.000000 -2.309062 0.000000 0.000000 2.309062 0.000000 0.000000 -0.000000 0.000000 0.000000 -0.000000 90.000000 0.000000 -2.309062 0.000000 0.000000 2.309062 0.000000 0.000000 8.520406 0.000000 0.000000 1.905762 0.000000 -0.000000 -4.658285 0.000000 0.000000 -0.000000 0.000000 0.000000 8.520406 0.000000 0.000000 1.905762 0.000000 -0.000000 -4.658285 0.000000 0.000000 -0.000000 0.000000
-8.792823 45.838383 27.136969 163.045644 -14.735746 0.229485 2.339166 8.790849 0.237077 0.128893 0.468609 0.026008 0.234274 0.856340 0.020110 2.286993 8.157911 0.532896 -0.633115 22.005537 -0.018234 -0.674954 -2.214422 0.108767 3.054082 1.802655 -3.425878 -1.074142 -12.561138 0.220332 -31.749460 -75.186525 44.393094 -11.585360 -6.033318 -22.524120 -10.798470 -0.508419 -3.585688 17.682272 -13.729750 8.639508 42.881681 -65.046645 -61.187664 9.939985 -5.938631 13.518103 -16.275515 -73.749764 13.054083 -75.696083 84.679528 -79.124987 -8.306214 -5.826712 -0.186442 0.057314 -0.256939 0.008814 1.737340 -72.730536 15.731802 74.398108 78.737873 72.315437 -12.759602 -4.691243 3.011269 0.116660 0.427724 0.053918
-8.795261 45.839374 27.142901 163.032646 -14.768608 0.242481 2.340515 8.788168 0.247402 0.135147 0.490230 0.014517 0.229700 0.841035 0.029903 2.290511 8.173362 0.530029 -0.621204 21.997068 -0.009906 -0.656911 -2.226077 0.112374 3.048533 1.808658 -3.431368 -1.080171 -12.556091 0.205983 -31.712772 -75.168660 44.349176 -11.578608 -6.019941 -22.532085 -10.787956 -0.516984 -3.570390 17.668818 -13.714510 8.677842 42.859616 -65.034278 -61.137727 9.916903 -5.935327 13.538512 -16.186119 -73.722039 12.977297 -75.601004 84.675235 -79.028113 -8.319130 -5.820067 -0.180706 0.060999 -0.256939 0.008656 1.763046 -72.697514 15.705265 74.390851 78.725832 72.306291 -12.750623 -4.680932 3.011275 0.109370 0.416445 0.050363
-8.799130 45.839735 27.151195 163.040248 -14.790189 0.256619 2.320736 8.782061 0.245318 0.142525 0.504750 0.008463 0.227312 0.827223 0.039722 2.280382 8.153092 0.557750 -0.623509 22.037556 -0.053051 -0.646139 -2.236011 0.117186 3.052042 1.850631 -3.467466 -1.089587 -12.549390 0.191375 -31.629271 -75.143886 44.244542 -11.581790 -6.023843 -22.523071 -10.764253 -0.495997 -3.591310 17.653922 -13.699494 8.713274 42.900112 -64.996559 -61.165904 9.884215 -5.922254 13.571019 -16.102805 -73.708108 12.886755 -75.525948 84.672984 -78.950296 -8.331793 -5.813924 -0.179023 0.048683 -0.257235 0.012203 1.796731 -72.674925 15.640564 74.328265 78.706626 72.245861 -12.726751 -4.659496 3.011385 0.082709 0.399594 0.040651
-8.801068 45.839532 27.161465 163.026429 -14.803019 0.263617 2.325742 8.773602 0.251829 0.127425 0.469241 0.026865 0.227639 0.827060 0.041438 2.295424 8.204500 0.534307 -0.608426 22.013325 -0.031532 -0.644588 -2.222334 0.105102 3.051949 1.837427 -3.457442 -1.105178 -12.532492 0.171783 -31.598204 -75.130971 44.222658 -11.581749 -6.021382 -22.550179 -10.748983 -0.507227 -3.563467 17.640495 -13.686845 8.745447 42.933993 -64.957586 -61.189382 9.862763 -5.909752 13.595476 -16.016805 -73.702520 12.823314 -75.400749 84.665301 -78.820856 -8.325504 -5.792528 -0.170691 0.003849 -0.263385 0.012090 1.814339 -72.661249 15.627069 74.258774 78.693862 72.177469 -12.725234 -4.643792 3.005958 0.080977 0.397091 0.040611
-8.803546 45.839485 27.169437 163.012746 -14.823305 0.280189 2.334723 8.787254 0.242691 0.118749 0.448569 0.037159 0.233014 0.840441 0.035224 2.296795 8.188328 0.551382 -0.581070 21.982670 -0.006029 -0.648696 -2.190984 0.083934 3.023885 1.844130 -3.462523 -1.120506 -12.514499 0.154726 -31.533224 -75.105498 44.176732 -11.582663 -6.027999 -22.561521 -10.735190 -0.497099 -3.558131 17.633164 -13.677488 8.773919 42.830891 -64.948312 -61.053320 9.899367 -5.924103 13.575834 -15.878534 -73.693867 12.714525 -75.287124 84.652435 -78.688506 -8.414817 -5.770144 -0.163882 0.074332 -0.268795 0.011234 1.863118 -72.638964 15.581010 74.196488 78.683476 72.120936 -12.729505 -4.632673 2.993143 0.087704 0.396008 0.044547
-8.803089 45.839112 27.177377 162.976578 -14.839548 0.287429 2.355402 8.775905 0.256865 0.125968 0.456308 0.033266 0.233352 0.845955 0.032874 2.299113 8.167940 0.566005 -0.571773 21.989144 -0.006925 -0.634638 -2.190633 0.085144 3.020293 1.877259 -3.479688 -1.126309 -12.512483 0.153175 -31.506567 -75.072822 44.102236 -11.576819 -6.038258 -22.534609 -10.724702 -0.477241 -3.559755 17.635079 -13.674255 8.806064 42.817935 -64.917834 -61.036986 9.893362 -5.922934 13.586578 -15.727813 -73.687672 12.614270 -75.178792 84.648811 -78.563284 -8.399184 -5.742980 -0.156924 0.068724 -0.277241 0.015269 1.889148 -72.621534 15.585395 74.132212 78.679736 72.063640 -12.726068 -4.620108 2.983148 0.086293 0.385339 0.043702
-8.806031 45.838108 27.184281 162.999238 -14.844094 0.303347 2.322636 8.755936 0.246294 0.131429 0.475179 0.024065 0.219150 0.797776 0.054217 2.308754 8.191759 0.559364 -0.565272 22.001019 -0.008758 -0.596198 -2.212847 0.111245 3.008451 1.900665 -3.482397 -1.120832 -12.504360 0.143154 -31.509364 -75.063206 44.091917 -11.572462 -6.036552 -22.523506 -10.719362 -0.452221 -3.573111 17.645578 -13.680035 8.848153 42.828726 -64.886658 -61.055845 9.875871 -5.916067 13.603529 -15.653368 -73.691924 12.519750 -75.091950 84.651905 -78.474048 -8.427869 -5.709266 -0.160918 0.074326 -0.304555 0.027368 1.942445 -72.614754 15.507773 74.054764 78.669035 71.988029 -12.762554 -4.642962 2.968716 0.115347 0.420978 0.056442
-8.804764 45.837760 27.187124 162.987349 -14.867960 0.312166 2.318890 8.739739 0.255906 0.135325 0.487500 0.018610 0.220398 0.800422 0.054844 2.306911 8.165795 0.575861 -0.565440 22.046405 -0.034975 -0.582896 -2.218675 0.121550 2.998495 1.920920 -3.476077 -1.117034 -12.475477 0.121190 -31.466439 -75.061666 44.062434 -11.586072 -6.041897 -22.565480 -10.703777 -0.419090 -3.573131 17.662039 -13.664153 8.860395 42.806804 -64.865460 -61.031207 9.880969 -5.918863 13.592911 -15.583290 -73.672251 12.463118 -75.063985 84.653514 -78.441193 -8.439531 -5.709060 -0.161118 0.064699 -0.302664 0.028490 1.978075 -72.589026 15.487477 74.025058 78.669397 71.959517 -12.770428 -4.645921 2.967160 0.126458 0.424733 0.057611
-8.802514 45.836942 27.189345 162.979789 -14.884258 0.316357 2.321895 8.743696 0.259436 0.121768 0.451965 0.034969 0.229091 0.824382 0.044022 2.312752 8.183731 0.569809 -0.553554 22.031601 -0.017011 -0.589012 -2.201243 0.108123 2.993019 1.909134 -3.459596 -1.165560 -12.462163 0.133606 -31.384509 -75.055154 44.001304 -11.613828 -6.060160 -22.640737 -10.692928 -0.424664 -3.545236 17.675687 -13.646788 8.871931 42.782176 -64.854167 -61.010692 9.908182 -5.928966 13.571971 -15.545965 -73.659863 12.437560 -75.075979 84.651228 -78.448882 -8.457480 -5.706535 -0.164402 0.078732 -0.304023 0.031829 1.992147 -72.573360 15.485069 74.019929 78.670355 71.951024 -12.761215 -4.647084 2.965578 0.117083 0.424985 0.059988
-8.800424 45.835968 27.189371 162.963135 -14.900812 0.328567 2.325197 8.738934 0.260401 0.124226 0.449524 0.035087 0.229387 0.823807 0.044480 2.318513 8.180745 0.574977 -0.546957 22.038857 -0.012417 -0.583054 -2.192680 0.111569 2.987989 1.919853 -3.451349 -1.188247 -12.450528 0.129597 -31.416789 -75.032997 43.987448 -11.598308 -6.049297 -22.609768 -10.678872 -0.421092 -3.508724 17.683504 -13.609473 8.842135 42.681237 -64.867619 -60.885298 9.932555 -5.943326 13.545664 -15.502745 -73.650980 12.412861 -75.129878 84.648189 -78.503842 -8.479402 -5.698463 -0.166511 0.108836 -0.311257 0.034376 2.028855 -72.557582 15.467091 74.044435 78.659704 71.975271 -12.776120 -4.642880 2.964258 0.120230 0.418547 0.058069
-8.796836 45.834816 27.187852 162.940885 -14.917487 0.336678 2.339871 8.731078 0.268072 0.125880 0.461913 0.029704 0.229522 0.823532 0.044692 2.319481 8.164739 0.585319 -0.541194 22.050696 -0.010178 -0.577305 -2.178755 0.112508 2.983212 1.930495 -3.441449 -1.207145 -12.443272 0.122019 -31.390818 -75.023162 43.951230 -11.590478 -6.037559 -22.587833 -10.675194 -0.398730 -3.522573 17.692630 -13.604307 8.852484 42.649269 -64.864464 -60.843965 9.923142 -5.940744 13.547012 -15.489356 -73.637332 12.416052 -75.180973 84.650069 -78.566655 -8.433343 -5.694498 -0.172478 0.095164 -0.316219 0.041334 2.054206 -72.541008 15.465311 74.065437 78.653230 71.996558 -12.774854 -4.639289 2.962452 0.114647 0.411966 0.056168
